<?xml version="1.0" encoding="UTF-8"?>
<svg width="220" height="118" viewBox="0 0 220 118" xmlns="http://www.w3.org/2000/svg" role="img" aria-labelledby="t-github-admin">
  <title id="t-github-admin">GitHub Administration — GitHub, 12.2025</title>
  <defs>
    <linearGradient id="card-github-admin" x1="0%" y1="0%" x2="100%" y2="100%">
      <stop offset="0%" stop-color="#23232F"/>
      <stop offset="100%" stop-color="#15151E"/>
    </linearGradient>
    <linearGradient id="chip-github-admin" x1="0%" y1="0%" x2="100%" y2="100%">
      <stop offset="0%" stop-color="#8B5CF633"/>
      <stop offset="100%" stop-color="#8B5CF60D"/>
    </linearGradient>
  </defs>
  <rect x="0.5" y="0.5" width="219" height="117" rx="16" fill="url(#card-github-admin)" stroke="#31313F"/>
  <rect x="16" y="16" width="30" height="30" rx="9" fill="url(#chip-github-admin)"/>
  <svg x="22.0" y="22.0" width="18" height="18" viewBox="0 0 24 24" fill="#A78BFA" xmlns="http://www.w3.org/2000/svg">
      <path d="M12 2C6.477 2 2 6.477 2 12c0 4.42 2.865 8.17 6.839 9.49.5.092.682-.217.682-.482 0-.237-.008-.866-.013-1.7-2.782.604-3.369-1.34-3.369-1.34-.454-1.156-1.11-1.464-1.11-1.464-.908-.62.069-.608.069-.608 1.003.07 1.531 1.03 1.531 1.03.892 1.529 2.341 1.087 2.91.831.092-.646.35-1.086.636-1.336-2.22-.253-4.555-1.11-4.555-4.943 0-1.091.39-1.984 1.029-2.683-.103-.253-.446-1.27.098-2.647 0 0 .84-.269 2.75 1.025A9.578 9.578 0 0112 6.836c.85.004 1.705.114 2.504.336 1.909-1.294 2.747-1.025 2.747-1.025.546 1.377.203 2.394.1 2.647.64.699 1.028 1.592 1.028 2.683 0 3.842-2.339 4.687-4.566 4.935.359.309.678.919.678 1.852 0 1.336-.012 2.415-.012 2.743 0 .267.18.578.688.48C19.138 20.167 22 16.418 22 12c0-5.523-4.477-10-10-10z"/>
    </svg>
  <text x="204" y="36" text-anchor="end" font-family="ui-monospace,SFMono-Regular,Menlo,Consolas,monospace" font-size="10" fill="#8A8798">12.2025</text>
  <text y="67" font-family="-apple-system,'Segoe UI',Helvetica,Arial,sans-serif" font-size="13" font-weight="700" fill="#F2F1F6"><tspan x="16" dy="0">GitHub Administration</tspan></text>
  <text x="16" y="102" font-family="ui-monospace,SFMono-Regular,Menlo,Consolas,monospace" font-size="9.5" letter-spacing="1.1" fill="#8A8798">GITHUB &#8599;</text>
</svg>
